<?xml version="1.0" encoding="UTF-8"?><svg id="Capa_1" xmlns="http://www.w3.org/2000/svg" viewBox="0 0 89 14"><defs><style>.cls-1{fill:#fff;stroke-width:0px;}</style></defs><path class="cls-1" d="m6.56,8.56c-1.05-1.95-2.1-3.32-3.14-4.13l.02,5.47c0,.55.26.96.78,1.22H1.11c.52-.26.78-.79.78-1.61V1c2.06,2.28,3.62,4.53,4.67,6.75.97-2.21,2.53-4.46,4.67-6.75v8.51c0,.81.26,1.35.78,1.61h-3.11c.52-.26.78-.66.78-1.22l-.02-5.47c-1.09.81-2.12,2.18-3.09,4.13Z"/><path class="cls-1" d="m15.18,1.78c-.52.26-.78.68-.78,1.27v6.13c0,.54.19,1,.57,1.38s.84.57,1.38.57,1-.19,1.38-.57.57-.84.57-1.38V3.04c0-.58-.26-1.01-.78-1.27h3.11c-.52.26-.78.65-.78,1.17v5.45c0,1.04-.34,1.82-1.02,2.34s-1.51.78-2.48.78-1.8-.28-2.48-.83c-.68-.55-1.02-1.31-1.02-2.28V2.95c0-.52-.26-.91-.78-1.17h3.11Z"/><path class="cls-1" d="m21.84,10.73c.26.26.68.38,1.27.38h.03c.11,0,.21.01.3.01,1.04,0,1.69-.26,1.95-.78.13-.26.19-.52.19-.78s-.1-.58-.29-.97-.44-.69-.74-.9-.58-.4-.85-.55c-.24-.14-.49-.28-.73-.41l-.1-.06c-.28-.15-.55-.31-.82-.48s-.51-.37-.73-.59-.38-.48-.5-.76c-.1-.22-.15-.48-.15-.76,0-.08,0-.16.01-.24.05-.53.23-.99.55-1.37s.72-.66,1.22-.85c.39-.15.8-.22,1.24-.22.12,0,.25,0,.38.02.35.03.65.1.9.2.07.03.16.05.25.05.23,0,.53-.09.9-.28l-.78,2.34c0-.78-.06-1.23-.18-1.34s-.21-.2-.27-.24c-.29-.2-.61-.32-.97-.35-.07,0-.14-.01-.21-.01-.36,0-.75.13-1.18.39s-.65.65-.65,1.17.12.9.35,1.14.47.44.71.58.52.3.84.46l.05.03.34.18c.5.27.94.55,1.33.85s.69.64.9,1.01c.17.32.26.68.26,1.08,0,.09,0,.17-.01.26-.05.57-.25,1.06-.59,1.45s-.79.69-1.34.88c-.41.14-.86.21-1.34.21-.15,0-.31,0-.47-.02-.37-.03-.71-.08-1.01-.15-.08-.02-.16-.02-.25-.02-.27,0-.6.08-.99.23l.78-2.34c0,.78.13,1.3.38,1.55Z"/><path class="cls-1" d="m29.12,5.63c.59-.13,1.13-.19,1.62-.19,1,0,1.77.27,2.31.81-.48-.13-.95-.2-1.4-.2-.89,0-1.73.26-2.51.78-.02,0-.03.02-.05.03v3.87h2.34c.52,0,.78-.39.78-1.17l.78,1.56h-6.23c.52-.26.78-.75.78-1.46V3.24c0-.71-.26-1.2-.78-1.46h6.23l-.78,1.56c0-.78-.26-1.17-.78-1.17h-2.34l-.02,3.48h.06Z"/><path class="cls-1" d="m38.39,11.51c-1.4,0-2.59-.49-3.58-1.48s-1.48-2.18-1.48-3.58.49-2.59,1.48-3.58,2.18-1.48,3.58-1.48,2.59.49,3.58,1.48,1.48,2.18,1.48,3.58-.49,2.59-1.48,3.58-2.18,1.48-3.58,1.48Zm0-.39c.97,0,1.8-.46,2.48-1.37s1.02-2.01,1.02-3.3-.34-2.39-1.02-3.3-1.51-1.37-2.48-1.37-1.8.46-2.48,1.37-1.02,2.01-1.02,3.3.34,2.39,1.02,3.3,1.51,1.37,2.48,1.37Z"/><path class="cls-1" d="m47.93,3.34l-.78-1.56h7.01l-.78,1.56c0-.78-.26-1.17-.78-1.17h-1.17v7.49c0,.71.26,1.2.78,1.46h-3.11c.52-.26.78-.75.78-1.46V2.17h-1.17c-.52,0-.78.39-.78,1.17Z"/><path class="cls-1" d="m54.45,9.49l-.13.27c-.11.24-.17.45-.17.64,0,.32.17.56.5.72h-2.34c.64-.26,1.15-.79,1.52-1.61l.57-1.22,1.12-2.43,2.24-4.87,2.24,4.87,1.13,2.43.56,1.22c.37.81.88,1.35,1.52,1.61h-3.11c.23-.15.34-.36.34-.64,0-.2-.06-.44-.18-.72l-.44-.97-2.45-5.45-2.23,4.69c.45-.08.87-.12,1.25-.12,1,0,1.77.27,2.31.81-.43-.12-.86-.18-1.28-.18-1,0-1.99.33-2.97.98v-.02Z"/><path class="cls-1" d="m68.37,8.8c1.04,1.68,2.87,3.08,5.5,4.2-2.48-.26-4.81-1.62-6.98-4.07-.04-.05-.08-.1-.13-.15h-1.14v.97c0,.65.26,1.1.78,1.36h-3.11c.52-.26.78-.75.78-1.46V3.24c0-.71-.26-1.2-.78-1.46h4.28c.97,0,1.8.34,2.48,1.02s1.02,1.51,1.02,2.48-.34,1.79-1.02,2.48c-.5.5-1.07.82-1.73.95l.05.09Zm-.8-.4c.54,0,1-.3,1.38-.91s.57-1.34.57-2.2-.19-1.59-.57-2.2-.84-.91-1.38-.91h-1.95v6.23h1.95Z"/><path class="cls-1" d="m77.06,11.51c-1.4,0-2.59-.49-3.58-1.48s-1.48-2.18-1.48-3.58.49-2.59,1.48-3.58,2.18-1.48,3.58-1.48,2.59.49,3.58,1.48,1.48,2.18,1.48,3.58-.49,2.59-1.48,3.58-2.18,1.48-3.58,1.48Zm0-.39c.97,0,1.8-.46,2.48-1.37s1.02-2.01,1.02-3.3-.34-2.39-1.02-3.3-1.51-1.37-2.48-1.37-1.8.46-2.48,1.37-1.02,2.01-1.02,3.3.34,2.39,1.02,3.3,1.51,1.37,2.48,1.37Z"/><path class="cls-1" d="m81.66,3.34l-.78-1.56h7.01l-.78,1.56c0-.78-.26-1.17-.78-1.17h-1.17v7.49c0,.71.26,1.2.78,1.46h-3.11c.52-.26.78-.75.78-1.46V2.17h-1.17c-.52,0-.78.39-.78,1.17Z"/></svg>